<?xml version="1.0" encoding="UTF-8" standalone="no"?>
<!-- Created with Inkscape (http://www.inkscape.org/) -->

<svg
   xmlns:dc="http://purl.org/dc/elements/1.1/"
   xmlns:cc="http://creativecommons.org/ns#"
   xmlns:rdf="http://www.w3.org/1999/02/22-rdf-syntax-ns#"
   xmlns:svg="http://www.w3.org/2000/svg"
   xmlns="http://www.w3.org/2000/svg"
   xmlns:sodipodi="http://sodipodi.sourceforge.net/DTD/sodipodi-0.dtd"
   xmlns:inkscape="http://www.inkscape.org/namespaces/inkscape"
   width="107.95727"
   height="28.24733"
   viewBox="0 0 28.563693 7.4737727"
   version="1.1"
   id="svg792"
   inkscape:version="0.92.0 r15299"
   sodipodi:docname="dina.svg">
  <defs
     id="defs786" />
  <sodipodi:namedview
     id="base"
     pagecolor="#ffffff"
     bordercolor="#666666"
     borderopacity="1.0"
     inkscape:pageopacity="0.0"
     inkscape:pageshadow="2"
     inkscape:zoom="2.5181822"
     inkscape:cx="58.919399"
     inkscape:cy="14.831335"
     inkscape:document-units="mm"
     inkscape:current-layer="layer1"
     showgrid="false"
     fit-margin-top="0"
     fit-margin-left="0"
     fit-margin-right="0"
     fit-margin-bottom="0"
     units="px"
     inkscape:window-width="1280"
     inkscape:window-height="744"
     inkscape:window-x="-4"
     inkscape:window-y="-4"
     inkscape:window-maximized="1" />
  <metadata
     id="metadata789">
    <rdf:RDF>
      <cc:Work
         rdf:about="">
        <dc:format>image/svg+xml</dc:format>
        <dc:type
           rdf:resource="http://purl.org/dc/dcmitype/StillImage" />
        <dc:title></dc:title>
      </cc:Work>
    </rdf:RDF>
  </metadata>
  <g
     inkscape:label="Layer 1"
     inkscape:groupmode="layer"
     id="layer1"
     transform="translate(-105.36329,-199.71226)">
    <g
       id="g844"
       transform="translate(0.13229188,-0.13228883)">
      <path
         d="m 106.9335,199.97684 h 4.70852 l -6.27873,7.04109 z"
         style="fill:#e63c2f;fill-opacity:1;fill-rule:nonzero;stroke:none;stroke-width:0.35277778"
         id="path44"
         inkscape:connector-curvature="0" />
      <path
         d="m 111.99572,199.99458 0.26776,0.0892 -4.73428,7.10212 h -0.84455 z"
         style="fill:#e63c2f;fill-opacity:1;fill-rule:nonzero;stroke:none;stroke-width:0.35277778"
         id="path48"
         inkscape:connector-curvature="0" />
      <path
         d="m 112.52036,200.24043 c 0,0 1.75331,0.77047 1.03858,3.68476 -0.71473,2.9136 -3.19335,3.26038 -3.19335,3.26038 h -1.23966 z"
         style="fill:#e63c2f;fill-opacity:1;fill-rule:nonzero;stroke:none;stroke-width:0.35277778"
         id="path60"
         inkscape:connector-curvature="0" />
      <path
         d="m 114.94683,199.97684 h 3.01484 l -1.7011,7.20866 h -2.90265 z"
         style="fill:#e63c2f;fill-opacity:1;fill-rule:nonzero;stroke:none;stroke-width:0.35277778"
         id="path64"
         inkscape:connector-curvature="0" />
      <path
         d="m 128.71773,203.74645 h 1.46262 l -0.44662,-1.71944 z m -10.01183,-3.76943 h 3.48368 l 1.10172,3.69111 0.96379,-3.69111 h 2.49767 l -0.88195,4.32752 2.95875,-4.32752 h 3.36832 l 1.45168,7.20901 h -2.72803 l -0.50659,-1.59737 h -2.7686 l -0.99765,1.59737 h -4.6602 l -1.35466,-3.21627 -0.74789,3.21592 h -2.86985 z"
         style="fill:#e63c2f;fill-opacity:1;fill-rule:nonzero;stroke:none;stroke-width:0.35277778"
         id="path68"
         inkscape:connector-curvature="0" />
      <path
         d="m 133.2548,200.19486 h -0.079 v 0.16087 h 0.0815 c 0.0444,0 0.0765,-0.006 0.0956,-0.0183 0.0187,-0.012 0.0286,-0.0317 0.0286,-0.0596 0,-0.0289 -0.0102,-0.0501 -0.0296,-0.0628 -0.0205,-0.013 -0.0526,-0.0201 -0.097,-0.0201 m 0.0145,-0.0501 c 0.0649,0 0.11325,0.0102 0.14535,0.0314 0.031,0.0208 0.0469,0.0526 0.0469,0.0952 0,0.0325 -0.01,0.0603 -0.0289,0.0822 -0.0194,0.0215 -0.0459,0.0353 -0.0783,0.0416 l 0.10266,0.21096 h -0.0864 l -0.0967,-0.20003 h -0.0981 v 0.20003 h -0.0773 v -0.46143 z m 0.34467,0.24024 c 0,-0.049 -0.009,-0.0945 -0.0265,-0.13829 -0.0176,-0.0434 -0.043,-0.0815 -0.0759,-0.11465 -0.0342,-0.0342 -0.0723,-0.06 -0.11606,-0.0776 -0.0427,-0.018 -0.0892,-0.0265 -0.13794,-0.0265 -0.0483,0 -0.0935,0.008 -0.13546,0.0254 -0.0423,0.0169 -0.0797,0.0427 -0.11219,0.0755 -0.0346,0.0342 -0.0607,0.0737 -0.079,0.11712 -0.0183,0.0434 -0.0272,0.0889 -0.0272,0.13688 0,0.0466 0.009,0.0914 0.0265,0.1337 0.0183,0.0427 0.0437,0.0811 0.0773,0.11571 0.0339,0.0339 0.0716,0.0593 0.11466,0.0776 0.0423,0.0176 0.0871,0.0264 0.13476,0.0264 0.0476,0 0.0935,-0.008 0.13617,-0.0261 0.0437,-0.0176 0.0825,-0.0438 0.11783,-0.078 0.0332,-0.0332 0.0589,-0.0705 0.0762,-0.11288 0.0176,-0.0427 0.0268,-0.0871 0.0268,-0.13441 m -0.35596,-0.40676 c 0.055,0 0.10654,0.0102 0.15664,0.0303 0.049,0.0201 0.0928,0.0497 0.13158,0.0889 0.0374,0.037 0.066,0.0804 0.0861,0.12947 0.0194,0.0487 0.03,0.10054 0.03,0.15522 0,0.0554 -0.0106,0.10725 -0.03,0.15558 -0.0201,0.0483 -0.049,0.0907 -0.0871,0.12806 -0.0402,0.0392 -0.0847,0.0688 -0.13406,0.0896 -0.049,0.0205 -0.10019,0.0307 -0.15311,0.0307 -0.0533,0 -0.10406,-0.0102 -0.15239,-0.0307 -0.0494,-0.0205 -0.0931,-0.0501 -0.13194,-0.0896 -0.0388,-0.0381 -0.0681,-0.0815 -0.0885,-0.12982 -0.0198,-0.0494 -0.03,-0.10019 -0.03,-0.15382 0,-0.054 0.0106,-0.10548 0.0318,-0.15522 0.0208,-0.0494 0.0508,-0.0935 0.09,-0.13264 0.037,-0.0381 0.0794,-0.0663 0.12735,-0.0864 0.0476,-0.0205 0.0998,-0.0296 0.15381,-0.0296"
         style="fill:#e63c2f;fill-opacity:1;fill-rule:nonzero;stroke:none;stroke-width:0.35277778"
         id="path72"
         inkscape:connector-curvature="0" />
    </g>
  </g>
</svg>
